<svg width="40" height="41" viewBox="0 0 40 41" fill="none" xmlns="http://www.w3.org/2000/svg">
<g filter="url(#filter0_d_2480_1270)">
<path d="M2 11.5C2 5.97715 6.47715 1.5 12 1.5H28C33.5228 1.5 38 5.97715 38 11.5V27.5C38 33.0228 33.5228 37.5 28 37.5H12C6.47715 37.5 2 33.0228 2 27.5V11.5Z" fill="white" shape-rendering="crispEdges"/>
<path d="M2.5 11.5C2.5 6.2533 6.7533 2 12 2H28C33.2467 2 37.5 6.2533 37.5 11.5V27.5C37.5 32.7467 33.2467 37 28 37H12C6.7533 37 2.5 32.7467 2.5 27.5V11.5Z" stroke="#E4E4E7" shape-rendering="crispEdges"/>
<path d="M20 13.5C19.2044 14.2956 18.7574 15.3748 18.7574 16.5C18.7574 17.6252 19.2044 18.7044 20 19.5C20.7957 20.2956 21.8748 20.7426 23 20.7426C24.1252 20.7426 25.2044 20.2956 26 19.5C26 20.6867 25.6481 21.8467 24.9888 22.8334C24.3295 23.8201 23.3925 24.5892 22.2961 25.0433C21.1997 25.4974 19.9933 25.6162 18.8295 25.3847C17.6656 25.1532 16.5965 24.5818 15.7574 23.7426C14.9182 22.9035 14.3468 21.8344 14.1153 20.6705C13.8838 19.5067 14.0026 18.3003 14.4567 17.2039C14.9109 16.1075 15.6799 15.1705 16.6666 14.5112C17.6533 13.8519 18.8133 13.5 20 13.5Z" stroke="#18181B" stroke-linecap="round" stroke-linejoin="round"/>
</g>
<defs>
<filter id="filter0_d_2480_1270" x="0" y="0.5" width="40" height="40" filterUnits="userSpaceOnUse" color-interpolation-filters="sRGB">
<feFlood flood-opacity="0" result="BackgroundImageFix"/>
<feColorMatrix in="SourceAlpha" type="matrix" values="0 0 0 0 0 0 0 0 0 0 0 0 0 0 0 0 0 0 127 0" result="hardAlpha"/>
<feOffset dy="1"/>
<feGaussianBlur stdDeviation="1"/>
<feComposite in2="hardAlpha" operator="out"/>
<feColorMatrix type="matrix" values="0 0 0 0 0 0 0 0 0 0 0 0 0 0 0 0 0 0 0.05 0"/>
<feBlend mode="normal" in2="BackgroundImageFix" result="effect1_dropShadow_2480_1270"/>
<feBlend mode="normal" in="SourceGraphic" in2="effect1_dropShadow_2480_1270" result="shape"/>
</filter>
</defs>
</svg>
